PathFileType	4	(X/Y/Z)
DataRate	CameraRate	NumFrames	NumMarkers	Units	OrigDataRate	OrigDataStartFrame	OrigNumFrames	
	120.0	120.0	11	39	mm	120.0	1	104
Frame#	Time	midhip	hip_r	hip_l	knee_r	knee_l	ankle_r	ankle_l	midasis	asis_r	asis_l	psis_r	psis_l	epicondLat_r	epicondLat_l	epicondMed_r	epicondMed_l	malleolusLat_r	malleolusLat_l	malleolusMedv_r	malleolusMedv_l	heel_r	heel_l	sternalnotch	xyphoidprocess	neck	subclavicle_r	subclavicle_l	toe_r	toe_l	thighwand_r	thighwand_l	upperleg1_r	upperleg1_l	upperleg2_r	upperleg2_l	shankwand_r	shankwand_l	lowerleg1_r	lowerleg1_l
	X1	Y1	Z1	X2	Y2	Z2	X3	Y3	Z3	X4	Y4	Z4	X5	Y5	Z5	X6	Y6	Z6	X7	Y7	Z7	X8	Y8	Z8	X9	Y9	Z9	X10	Y10	Z10	X11	Y11	Z11	X12	Y12	Z12	X13	Y13	Z13	X14	Y14	Z14	X15	Y15	Z15	X16	Y16	Z16	X17	Y17	Z17	X18	Y18	Z18	X19	Y19	Z19	X20	Y20	Z20	X21	Y21	Z21	X22	Y22	Z22	X23	Y23	Z23	X24	Y24	Z24	X25	Y25	Z25	X26	Y26	Z26	X27	Y27	Z27	X28	Y28	Z28	X29	Y29	Z29	X30	Y30	Z30	X31	Y31	Z31	X32	Y32	Z32	X33	Y33	Z33	X34	Y34	Z34	X35	Y35	Z35	X36	Y36	Z36	X37	Y37	Z37	X38	Y38	Z38	X39	Y39	Z39

	1	0.00833	1480.554	906.106	-249.551	1466.882	879.845	-176.398	1472.901	883.618	-326.660	1442.125	469.917	-133.807	1431.459	461.097	-352.490	1406.175	69.913	-130.688	1383.667	71.087	-363.136	1566.259	959.704	-245.710	1561.483	956.710	-126.489	1571.034	962.698	-364.932	1382.335	1018.314	-219.839	1388.381	1016.978	-304.968	1451.690	475.519	-74.331	1439.745	463.913	-411.848	1426.809	476.179	-182.387	1426.409	465.685	-301.991	1390.956	71.586	-91.579	1365.027	74.364	-399.507	1415.503	83.247	-157.918	1390.590	83.314	-338.217	1342.800	42.608	-144.053	1317.637	42.914	-352.094	1488.574	1370.178	-234.107	1569.561	1206.019	-244.245	1376.632	1437.505	-238.129	1498.826	1359.265	-181.846	1512.756	1365.030	-288.582	1525.656	39.279	-99.889	1500.542	41.357	-401.921	1506.360	590.824	-9.284	1595.982	552.811	-340.947	1522.089	650.802	-82.048	1534.894	618.397	-380.979	1513.454	563.604	-96.823	1508.303	535.417	-385.164	1417.692	204.790	-5.455	1405.811	212.087	-479.350	1406.100	172.209	-78.121	1384.829	174.049	-410.298
	2	0.01667	1480.547	906.056	-249.749	1466.867	879.830	-176.362	1472.854	883.611	-326.625	1442.147	469.923	-133.803	1431.524	461.082	-352.522	1406.184	69.928	-130.702	1383.677	71.095	-363.140	1566.221	959.702	-245.692	1561.469	956.701	-126.431	1570.972	962.703	-364.953	1382.369	1018.272	-219.908	1388.352	1016.962	-305.078	1451.702	475.522	-74.325	1439.791	463.912	-411.882	1426.802	476.189	-182.406	1426.559	465.707	-301.830	1390.958	71.600	-91.595	1365.025	74.374	-399.504	1415.476	83.298	-157.888	1390.515	83.304	-338.179	1342.787	42.597	-144.031	1317.626	42.918	-352.083	1488.588	1370.190	-234.060	1569.695	1206.102	-244.376	1376.618	1437.460	-238.287	1498.911	1359.260	-181.790	1512.709	1365.089	-288.596	1525.644	39.287	-99.976	1500.541	41.373	-401.942	1506.359	590.819	-9.278	1596.031	552.793	-340.934	1522.107	650.782	-82.042	1534.878	618.369	-381.019	1513.456	563.589	-96.825	1508.384	535.470	-385.103	1417.712	204.789	-5.461	1405.844	212.094	-479.327	1406.348	172.206	-78.039	1384.800	174.046	-410.248
	3	0.02500	1480.545	906.016	-249.923	1466.837	879.802	-176.352	1472.810	883.604	-326.615	1442.173	469.920	-133.806	1431.584	461.069	-352.560	1406.194	69.935	-130.713	1383.684	71.105	-363.141	1566.180	959.689	-245.680	1561.438	956.670	-126.386	1570.922	962.708	-364.974	1382.390	1018.228	-219.977	1388.329	1016.946	-305.176	1451.717	475.520	-74.326	1439.837	463.908	-411.922	1426.798	476.230	-182.453	1426.584	465.861	-301.687	1390.961	71.607	-91.609	1365.023	74.383	-399.500	1415.447	83.303	-157.860	1390.667	83.362	-338.158	1342.772	42.584	-144.004	1317.607	42.920	-352.069	1488.587	1370.230	-234.024	1569.777	1206.193	-244.512	1376.723	1437.386	-238.359	1498.967	1359.275	-181.765	1512.659	1365.174	-288.591	1525.643	39.295	-100.020	1500.537	41.378	-401.958	1506.363	590.820	-9.275	1596.097	552.792	-340.958	1522.110	650.758	-82.036	1534.893	618.392	-381.164	1513.459	563.624	-96.839	1508.384	535.470	-385.103	1417.726	204.791	-5.463	1405.869	212.094	-479.305	1406.440	172.258	-78.013	1384.737	174.029	-410.223
	4	0.03333	1480.446	905.907	-250.067	1466.790	879.762	-176.378	1472.770	883.599	-326.639	1442.205	469.908	-133.820	1431.622	461.056	-352.596	1406.204	69.933	-130.720	1383.683	71.113	-363.139	1566.138	959.664	-245.683	1561.389	956.618	-126.370	1570.886	962.711	-364.995	1382.392	1018.188	-220.041	1388.305	1016.936	-305.254	1451.732	475.513	-74.338	1439.874	463.899	-411.958	1426.649	476.417	-182.450	1426.602	466.063	-301.534	1390.961	71.608	-91.620	1365.021	74.390	-399.497	1415.437	83.206	-157.813	1390.884	83.441	-338.134	1342.758	42.572	-143.975	1317.586	42.922	-352.057	1488.578	1370.269	-234.066	1569.760	1206.228	-244.563	1376.694	1437.449	-238.421	1498.921	1359.292	-181.785	1512.686	1365.232	-288.638	1525.653	39.301	-99.996	1500.532	41.366	-401.966	1506.371	590.830	-9.276	1596.172	552.806	-341.017	1522.214	650.779	-81.959	1534.964	618.441	-381.299	1513.430	563.638	-96.797	1508.384	535.470	-385.103	1417.735	204.795	-5.463	1405.888	212.084	-479.287	1406.279	172.193	-78.109	1384.835	174.093	-410.223
	5	0.04167	1480.350	905.822	-250.175	1466.732	879.716	-176.437	1472.737	883.596	-326.697	1442.242	469.887	-133.848	1431.639	461.046	-352.628	1406.216	69.923	-130.724	1383.677	71.118	-363.136	1566.096	959.632	-245.703	1561.328	956.551	-126.392	1570.863	962.713	-365.013	1382.370	1018.153	-220.101	1388.277	1016.931	-305.313	1451.749	475.500	-74.364	1439.899	463.885	-411.988	1426.562	476.421	-182.332	1426.652	466.176	-301.419	1390.958	71.603	-91.630	1365.020	74.393	-399.498	1415.477	83.123	-157.825	1390.894	83.419	-338.124	1342.745	42.564	-143.944	1317.567	42.926	-352.051	1488.560	1370.284	-234.049	1569.904	1206.347	-244.898	1376.537	1437.439	-238.510	1498.885	1359.191	-181.751	1512.703	1365.401	-288.662	1525.673	39.302	-99.900	1500.529	41.339	-401.965	1506.383	590.852	-9.279	1596.245	552.828	-341.098	1522.246	650.755	-81.919	1535.025	618.482	-381.368	1513.408	563.625	-96.721	1508.384	535.470	-385.103	1417.738	204.800	-5.460	1405.902	212.067	-479.279	1406.247	172.129	-78.142	1384.982	174.162	-410.241
	6	0.05000	1480.291	905.791	-250.243	1466.674	879.666	-176.520	1472.712	883.592	-326.776	1442.287	469.858	-133.891	1431.648	461.040	-352.655	1406.231	69.904	-130.726	1383.671	71.118	-363.136	1566.058	959.597	-245.739	1561.264	956.481	-126.450	1570.851	962.714	-365.027	1382.318	1018.124	-220.157	1388.243	1016.930	-305.357	1451.767	475.482	-74.403	1439.920	463.871	-412.014	1426.664	476.199	-182.250	1426.814	466.093	-301.367	1390.956	71.590	-91.638	1365.020	74.390	-399.501	1415.510	83.167	-157.900	1390.825	83.324	-338.186	1342.737	42.558	-143.916	1317.552	42.929	-352.051	1488.482	1370.286	-233.926	1570.049	1206.493	-245.266	1376.434	1437.328	-238.644	1498.798	1359.039	-181.601	1512.656	1365.612	-288.606	1525.700	39.295	-99.754	1500.528	41.299	-401.954	1506.399	590.883	-9.282	1596.302	552.854	-341.185	1522.172	650.671	-81.982	1534.993	618.564	-381.338	1513.435	563.595	-96.710	1508.384	535.470	-385.103	1417.737	204.806	-5.454	1405.914	212.049	-479.281	1406.331	172.186	-78.108	1385.066	174.130	-410.309
	7	0.05833	1480.078	905.650	-250.285	1466.624	879.618	-176.608	1472.694	883.586	-326.862	1442.339	469.827	-133.948	1431.670	461.042	-352.681	1406.253	69.876	-130.726	1383.668	71.109	-363.140	1566.025	959.566	-245.783	1561.208	956.417	-126.533	1570.843	962.715	-365.033	1382.239	1018.100	-220.212	1388.204	1016.933	-305.393	1451.785	475.461	-74.456	1439.949	463.865	-412.040	1426.802	476.075	-182.310	1426.948	465.915	-301.494	1390.954	71.571	-91.648	1365.022	74.380	-399.509	1415.494	83.246	-157.952	1390.875	83.275	-338.239	1342.734	42.557	-143.893	1317.541	42.928	-352.054	1488.396	1370.267	-233.927	1570.065	1206.530	-245.333	1376.418	1437.188	-238.635	1498.617	1358.954	-181.526	1512.677	1365.679	-288.641	1525.724	39.280	-99.597	1500.531	41.254	-401.935	1506.417	590.918	-9.284	1596.334	552.877	-341.261	1522.152	650.587	-82.057	1534.962	618.635	-381.299	1513.494	563.597	-96.758	1508.407	535.447	-385.169	1417.730	204.813	-5.445	1405.928	212.037	-479.290	1406.391	172.278	-78.091	1385.154	174.031	-410.356
	8	0.06667	1479.917	905.567	-250.300	1466.585	879.578	-176.684	1472.681	883.577	-326.937	1442.395	469.799	-134.015	1431.721	461.051	-352.712	1406.281	69.844	-130.727	1383.673	71.094	-363.151	1565.997	959.542	-245.826	1561.161	956.369	-126.623	1570.833	962.715	-365.028	1382.138	1018.077	-220.261	1388.161	1016.935	-305.425	1451.800	475.440	-74.517	1439.996	463.869	-412.072	1426.972	476.011	-182.364	1426.969	465.779	-301.595	1390.956	71.549	-91.659	1365.025	74.366	-399.518	1415.492	83.269	-157.966	1390.909	83.219	-338.206	1342.739	42.558	-143.878	1317.533	42.924	-352.057	1488.286	1370.208	-234.025	1569.982	1206.479	-245.364	1376.423	1437.019	-238.578	1498.414	1358.870	-181.578	1512.666	1365.647	-288.734	1525.742	39.260	-99.469	1500.532	41.210	-401.910	1506.433	590.953	-9.285	1596.342	552.893	-341.316	1522.165	650.553	-82.082	1534.951	618.578	-381.318	1513.572	563.627	-96.769	1508.411	535.360	-385.232	1417.720	204.820	-5.435	1405.948	212.036	-479.301	1406.392	172.277	-78.102	1385.115	173.960	-410.400
	9	0.07500	1479.813	905.535	-250.301	1466.558	879.549	-176.736	1472.669	883.566	-326.987	1442.448	469.781	-134.086	1431.809	461.064	-352.750	1406.313	69.812	-130.727	1383.689	71.076	-363.168	1565.969	959.530	-245.858	1561.122	956.345	-126.703	1570.816	962.715	-365.012	1382.029	1018.050	-220.305	1388.117	1016.936	-305.457	1451.813	475.424	-74.582	1440.066	463.885	-412.112	1427.293	475.862	-182.485	1426.972	465.825	-301.370	1390.963	71.527	-91.670	1365.030	74.349	-399.529	1415.524	83.259	-157.965	1390.911	83.230	-338.242	1342.749	42.562	-143.873	1317.528	42.917	-352.059	1488.169	1370.119	-234.057	1569.937	1206.424	-245.354	1376.281	1436.877	-238.694	1498.384	1358.841	-181.545	1512.466	1365.515	-288.873	1525.751	39.243	-99.396	1500.529	41.176	-401.879	1506.447	590.986	-9.285	1596.332	552.903	-341.349	1522.161	650.562	-82.088	1534.943	618.535	-381.355	1513.692	563.542	-96.807	1508.350	535.256	-385.158	1417.707	204.827	-5.429	1405.971	212.044	-479.309	1406.381	172.268	-78.068	1384.952	173.894	-410.396
	10	0.08333	1479.667	905.462	-250.308	1466.537	879.532	-176.761	1472.657	883.551	-327.012	1442.496	469.778	-134.153	1431.928	461.080	-352.795	1406.349	69.787	-130.726	1383.714	71.058	-363.190	1565.939	959.530	-245.876	1561.088	956.344	-126.765	1570.791	962.716	-364.988	1381.920	1018.017	-220.341	1388.074	1016.934	-305.490	1451.823	475.418	-74.643	1440.154	463.910	-412.161	1427.578	475.824	-182.757	1426.948	465.880	-301.227	1390.975	71.511	-91.679	1365.036	74.336	-399.540	1415.573	83.301	-157.934	1390.904	83.365	-338.334	1342.763	42.568	-143.878	1317.527	42.911	-352.062	1488.035	1370.073	-234.097	1569.936	1206.428	-245.166	1375.967	1436.791	-238.816	1498.411	1358.954	-181.513	1512.180	1365.339	-289.044	1525.748	39.233	-99.385	1500.522	41.154	-401.847	1506.455	591.017	-9.288	1596.319	552.910	-341.369	1522.251	650.613	-82.099	1534.945	618.502	-381.334	1513.813	563.366	-96.924	1508.305	535.246	-385.094	1417.694	204.833	-5.429	1405.995	212.056	-479.313	1406.299	172.266	-78.034	1385.002	173.776	-410.357
	11	0.09167	1479.540	905.394	-250.327	1466.519	879.526	-176.766	1472.646	883.535	-327.017	1442.536	469.790	-134.208	1432.055	461.095	-352.843	1406.382	69.772	-130.722	1383.740	71.047	-363.212	1565.907	959.541	-245.882	1561.052	956.364	-126.805	1570.762	962.718	-364.960	1381.820	1017.978	-220.365	1388.030	1016.930	-305.528	1451.836	475.428	-74.694	1440.245	463.938	-412.213	1427.531	475.998	-182.916	1426.883	465.914	-301.292	1390.991	71.503	-91.682	1365.040	74.329	-399.551	1415.662	83.355	-157.852	1390.908	83.446	-338.349	1342.777	42.577	-143.892	1317.530	42.911	-352.066	1487.896	1370.088	-234.086	1569.966	1206.509	-244.874	1375.713	1436.703	-238.950	1498.391	1359.124	-181.498	1511.936	1365.232	-289.063	1525.733	39.230	-99.425	1500.513	41.146	-401.816	1506.459	591.050	-9.298	1596.310	552.917	-341.382	1522.390	650.668	-82.080	1534.945	618.476	-381.305	1513.825	563.295	-96.987	1508.292	535.342	-385.114	1417.687	204.841	-5.437	1406.013	212.060	-479.316	1406.124	172.114	-78.058	1385.135	173.720	-410.394
